<?xml version="1.0" encoding="utf-8"?>
<!-- Generator: Adobe Illustrator 16.0.0, SVG Export Plug-In . SVG Version: 6.00 Build 0)  -->
<!DOCTYPE svg PUBLIC "-//W3C//DTD SVG 1.1//EN" "http://www.w3.org/Graphics/SVG/1.1/DTD/svg11.dtd">
<svg version="1.1" id="Layer_3" xmlns="http://www.w3.org/2000/svg" xmlns:xlink="http://www.w3.org/1999/xlink" x="0px" y="0px"
	 width="206.5px" height="65px" viewBox="0 0 206.5 65" enable-background="new 0 0 206.5 65" xml:space="preserve">
<path fill="#FFFFFF" d="M29.459,37.313l1.949,4.992H27.63L29.459,37.313z M24.996,46.667h1.061l1.283-3.557h4.359l1.281,3.557h1.779
	l-4.172-11.507h-3.215v0.375c0.684,0.104,1.317,0.121,1.317,0.804c0,0.12-0.188,0.718-0.291,1.008L24.996,46.667z"/>
<path fill="#FFFFFF" d="M3.055,31.633v0.878h8.186v-0.878c-2.495,0-2.986-0.527-2.986-3.267V12.66h0.07l11.559,19.851h3.338V13.257
	c0-2.74,0.457-3.267,2.986-3.267V9.111h-8.188V9.99c2.461,0,2.988,0.527,2.988,3.267v14.721h-0.07L9.941,9.111H3.055V9.99
	c2.459,0,2.986,0.527,2.986,3.267v15.108C6.041,31.105,5.514,31.633,3.055,31.633"/>
<path fill="#FFFFFF" d="M55.005,45.861h-1.897c-0.855,0-1.078-0.033-1.078-0.991v-3.814h2.068c1.026,0,1.403,0.548,1.403,1.472
	h0.479v-3.591h-0.479c-0.104,0.564-0.222,1.315-1.403,1.315H52.03v-3.401c0-0.822,0.222-0.89,1.078-0.89h1.334
	c1.128,0,1.846,0.358,1.846,1.727h0.479l-0.052-2.53h-8.189v0.376c1.572,0.256,1.622,0.256,1.622,1.949v9.183h6.823l0.05-2.48
	h-0.477C56.441,45.52,55.98,45.861,55.005,45.861"/>
<path fill="#FFFFFF" d="M27.846,31.61v0.878h8.186V31.61c-2.53,0-2.986-0.527-2.986-3.267V11.795h0.07l7.379,20.693h2.459
	l7.377-20.693h0.07v16.548c0,2.74-0.527,3.267-2.985,3.267v0.878h9.521V31.61c-2.461,0-2.988-0.527-2.988-3.267V13.235
	c0-2.74,0.527-3.267,2.988-3.267V9.09h-7.729l-6.852,19.182h-0.07L35.506,9.09h-7.66v0.878c2.495,0,2.986,0.526,2.986,3.267v15.107
	C30.833,31.083,30.341,31.61,27.846,31.61"/>
<path fill="#FFFFFF" d="M6.631,46.05c-1.369,0-2.736-0.717-3.266-1.025v1.385c0.36,0.086,1.675,0.444,2.991,0.444
	c2.361,0,4.292-0.923,4.292-3.368c0-3.659-5.556-3.419-5.556-6.052c0-1.129,0.735-1.659,1.641-1.659c1.334,0,2.6,0.548,3.062,0.77
	v-1.265c-0.444-0.085-1.557-0.307-2.736-0.307c-2.411,0-3.847,1.076-3.847,2.957c0,3.607,5.556,3.351,5.556,6.121
	C8.768,45.605,7.707,46.05,6.631,46.05"/>
<path fill="#FFFFFF" d="M42.438,46.667V35.962h1.164c1.316,0,1.863,0.411,1.863,1.727h0.479l-0.069-2.53h-8.754l-0.069,2.479h0.479
	c0.103-1.248,0.496-1.675,1.847-1.675h1.18v10.704H42.438z"/>
<path fill="#FFFFFF" d="M19.214,46.667V35.962h1.162c1.317,0,1.865,0.411,1.865,1.727h0.479l-0.069-2.53h-8.754l-0.067,2.479h0.477
	c0.103-1.248,0.496-1.675,1.847-1.675h1.18v10.704H19.214z"/>
<path fill="#8C1D40" d="M27.63,42.306l1.829-4.992l1.949,4.992H27.63z M56.972,46.667H50.15v-9.183c0-1.693-0.052-1.693-1.625-1.949
	v-0.375h8.191l0.052,2.53h-0.479c0-1.367-0.718-1.727-1.846-1.727h-1.334c-0.855,0-1.078,0.068-1.078,0.89v3.403H54.1
	c1.18,0,1.298-0.753,1.4-1.318h0.48v3.592H55.5c0-0.924-0.374-1.471-1.4-1.471H52.03v3.813c0,0.958,0.222,0.993,1.078,0.993h1.897
	c0.975,0,1.436-0.343,1.54-1.676h0.479L56.972,46.667z M3.211,37.929c0-1.881,1.436-2.958,3.847-2.958
	c1.179,0,2.292,0.224,2.736,0.309v1.265c-0.461-0.222-1.727-0.769-3.06-0.769c-0.908,0-1.643,0.529-1.643,1.658
	c0,2.633,5.556,2.393,5.556,6.052c0,2.445-1.93,3.368-4.291,3.368c-1.317,0-2.632-0.359-2.992-0.444v-1.385
	c0.53,0.309,1.897,1.025,3.266,1.025c1.076,0,2.137-0.443,2.137-2C8.768,41.28,3.211,41.536,3.211,37.929 M16.154,35.962
	c-1.352,0-1.744,0.427-1.846,1.675H13.83l0.067-2.479h8.754l0.069,2.53h-0.477c0-1.316-0.547-1.727-1.866-1.727h-1.162v10.704h-1.88
	V35.962H16.154z M39.378,35.962c-1.35,0-1.744,0.427-1.847,1.675h-0.479l0.069-2.479h8.754l0.067,2.53h-0.477
	c0-1.316-0.547-1.727-1.865-1.727h-1.162v10.704h-1.88V35.962H39.378z M27.848,9.969V9.09h7.657l6.781,19.182h0.07l6.85-19.182
	h7.729v0.878c-2.458,0-2.985,0.526-2.985,3.267v15.107c0,2.74,0.527,3.267,2.985,3.267v0.878h-9.521V31.61
	c2.459,0,2.986-0.527,2.986-3.267V11.795h-0.07l-7.377,20.693h-2.459l-7.379-20.693h-0.069v16.548c0,2.74,0.457,3.267,2.985,3.267
	v0.878h-8.185V31.61c2.494,0,2.985-0.527,2.985-3.267V13.235C30.833,10.495,30.341,9.969,27.848,9.969 M27.372,35.535v-0.375h3.215
	l4.173,11.507h-1.779l-1.283-3.557h-4.359l-1.285,3.557h-1.059l3.402-9.319c0.103-0.291,0.291-0.889,0.291-1.008
	C28.689,35.655,28.057,35.637,27.372,35.535 M3.055,9.99V9.111h6.886l10.997,18.867h0.07V13.257c0-2.739-0.527-3.267-2.986-3.267
	V9.111h8.185V9.99c-2.528,0-2.984,0.527-2.984,3.267v19.254h-3.338L8.325,12.66h-0.07v15.705c0,2.741,0.491,3.268,2.986,3.268v0.878
	H3.055v-0.878c2.459,0,2.986-0.527,2.986-3.268V13.257C6.041,10.518,5.514,9.99,3.055,9.99 M58.583,0H1.001l0.028,64.812h9.356
	v-4.535h16.161l-0.702-3.399h32.739V0z"/>
<polygon fill="#8C1D40" points="70.07,22.471 79.124,22.471 79.124,24.85 72.687,24.85 72.687,27.38 78.361,27.38 78.361,29.759 
	72.687,29.759 72.687,34.363 70.07,34.363 "/>
<path fill="#8C1D40" d="M90.935,28.451v-0.033c0-2.04-1.496-3.739-3.601-3.739c-2.109,0-3.57,1.666-3.57,3.704v0.035
	c0,2.038,1.496,3.737,3.604,3.737C89.474,32.155,90.935,30.489,90.935,28.451 M81.029,28.451v-0.033
	c0-3.382,2.668-6.151,6.338-6.151c3.668,0,6.303,2.734,6.303,6.116v0.035c0,3.38-2.668,6.15-6.337,6.15
	C83.662,34.568,81.029,31.831,81.029,28.451"/>
<path fill="#8C1D40" d="M96.153,29.267v-6.795h2.617v6.727c0,1.938,0.968,2.94,2.564,2.94c1.597,0,2.567-0.968,2.567-2.853v-6.813
	h2.616v6.71c0,3.602-2.023,5.368-5.217,5.368C98.107,34.549,96.153,32.768,96.153,29.267"/>
<polygon fill="#8C1D40" points="109.6,22.471 112.012,22.471 117.584,29.793 117.584,22.471 120.167,22.471 120.167,34.363 
	117.942,34.363 112.183,26.803 112.183,34.363 109.6,34.363 "/>
<path fill="#8C1D40" d="M126.004,24.833v7.17h2.023c2.14,0,3.584-1.444,3.584-3.551v-0.034c0-2.107-1.444-3.585-3.584-3.585H126.004
	z M123.388,22.471h4.64c3.737,0,6.32,2.565,6.32,5.912v0.035c0,3.346-2.583,5.945-6.32,5.945h-4.64V22.471z"/>
<path fill="#8C1D40" d="M142.848,29.385l-1.58-3.857l-1.58,3.857H142.848z M140.094,22.386h2.414l5.096,11.978h-2.736l-1.087-2.667
	h-5.029l-1.087,2.667H135L140.094,22.386z"/>
<polygon fill="#8C1D40" points="151.022,24.883 147.403,24.883 147.403,22.471 157.256,22.471 157.256,24.883 153.638,24.883 
	153.638,34.363 151.022,34.363 "/>
<rect x="159.775" y="22.471" fill="#8C1D40" width="2.617" height="11.892"/>
<path fill="#8C1D40" d="M175.083,28.451v-0.033c0-2.04-1.494-3.739-3.602-3.739c-2.107,0-3.568,1.666-3.568,3.704v0.035
	c0,2.038,1.496,3.737,3.601,3.737C173.623,32.155,175.083,30.489,175.083,28.451 M165.18,28.451v-0.033
	c0-3.382,2.667-6.151,6.335-6.151c3.671,0,6.304,2.734,6.304,6.116v0.035c0,3.38-2.667,6.15-6.337,6.15S165.18,31.831,165.18,28.451
	"/>
<polygon fill="#8C1D40" points="180.49,22.471 182.903,22.471 188.474,29.793 188.474,22.471 191.056,22.471 191.056,34.363 
	188.831,34.363 183.072,26.803 183.072,34.363 180.49,34.363 "/>
<polygon fill="#8C1D40" points="70.071,0.052 70.071,3.878 202.675,3.878 202.675,52.956 70.071,52.956 70.071,56.782 
	206.503,56.782 206.503,0.052 "/>
</svg>
